<svg version="1.1" id="Layer_1" xmlns="http://www.w3.org/2000/svg" xmlns:xlink="http://www.w3.org/1999/xlink" x="0px" y="0px"
	 width="100%" viewBox="0 0 1200 1200" enable-background="new 0 0 1200 1200" xml:space="preserve">
<path fill="#000000" opacity="1.000000" stroke="none" 
	d="
M1055.000000,1201.000000 
	C703.333313,1201.000000 352.166656,1201.000000 1.000000,1201.000000 
	C1.000000,801.000000 1.000000,401.000000 1.000000,1.000000 
	C401.000000,1.000000 801.000000,1.000000 1201.000000,1.000000 
	C1201.000000,401.000000 1201.000000,801.000000 1201.000000,1201.000000 
	C1152.500000,1201.000000 1104.000000,1201.000000 1055.000000,1201.000000 
M216.021454,597.995972 
	C217.537964,594.073914 216.999390,589.019104 223.461075,586.539673 
	C224.325195,589.862671 225.826736,593.070862 225.885681,596.305237 
	C226.148773,610.742615 226.000000,625.187500 226.000000,639.791138 
	C230.821198,639.791138 235.224121,639.791138 240.000000,639.791138 
	C240.000000,626.137146 240.080383,612.687805 239.954117,599.240356 
	C239.912827,594.842346 239.625992,590.402222 238.925278,586.066406 
	C238.095459,580.931641 235.302841,576.962952 229.827057,576.081360 
	C224.251694,575.183838 219.496826,577.020630 216.034668,581.677368 
	C215.231125,582.758057 214.458176,583.861572 213.317032,585.446350 
	C212.615753,579.811157 209.578125,576.973022 205.126358,576.147095 
	C199.140991,575.036621 194.391037,577.414612 190.878387,583.729797 
	C190.336441,580.934692 189.982391,579.108704 189.611374,577.195190 
	C185.512589,577.195190 181.400711,577.195190 177.778580,577.195190 
	C177.778580,598.183044 177.778580,618.977173 177.778580,639.721924 
	C182.963516,639.721924 187.368347,639.721924 192.000000,639.721924 
	C192.000000,626.811401 191.922699,614.176941 192.055710,601.544617 
	C192.087936,598.482483 192.378403,595.276672 193.369064,592.421082 
	C194.061798,590.424316 196.147949,588.910889 197.611771,587.181580 
	C198.773392,588.933289 200.186920,590.574585 201.018173,592.471069 
	C201.703354,594.034302 201.947647,595.898071 201.959641,597.631653 
	C202.038071,608.956726 202.000000,620.282593 202.000000,631.608215 
	C202.000000,634.366272 202.000000,637.124390 202.000000,639.673950 
	C207.057755,639.673950 211.462906,639.673950 216.001419,639.673950 
	C216.001419,625.869263 216.001419,612.390137 216.021454,597.995972 
M115.962631,618.679077 
	C117.546532,623.551514 119.540802,628.335938 120.609421,633.318909 
	C121.916229,639.412537 125.411240,640.977661 131.034027,640.055969 
	C133.141220,639.710510 135.377274,639.794556 137.509933,640.052307 
	C140.143967,640.370544 141.234619,639.104065 142.006744,636.858582 
	C147.522919,620.816406 153.155563,604.814087 158.639908,588.761108 
	C161.620972,580.035400 164.383942,571.235046 167.397888,562.000793 
	C161.553238,562.000793 156.403259,561.871582 151.269531,562.102844 
	C150.155960,562.153015 148.414948,563.292969 148.122375,564.276062 
	C144.283951,577.173767 140.697311,590.146118 136.949768,603.071411 
	C135.484360,608.125549 133.775146,613.108887 131.962875,618.796448 
	C126.463997,600.088928 121.264679,582.269348 115.903969,564.498352 
	C115.591995,563.464172 114.003036,562.161194 112.956184,562.112793 
	C107.685478,561.869263 102.397446,562.001099 96.287788,562.001099 
	C102.845520,581.115295 109.172760,599.557678 115.962631,618.679077 
M382.082428,622.605408 
	C379.000336,621.709290 376.139618,620.870422 374.337891,624.977844 
	C373.739838,626.341309 371.706940,627.318848 370.123077,627.967285 
	C359.165833,632.453003 350.571289,623.744629 351.467926,611.909424 
	C365.196198,611.909424 378.957581,611.909424 393.290436,611.909424 
	C392.829041,607.623535 392.867249,603.649048 391.902557,599.935120 
	C389.998413,592.604126 387.683746,585.476807 380.685608,580.904541 
	C371.813812,575.108215 362.519440,575.063477 352.772552,577.681458 
	C343.537506,580.161926 337.846680,586.236938 335.041595,595.143250 
	C332.544373,603.072083 332.196106,611.248657 334.200470,619.248718 
	C336.442505,628.197510 341.169128,635.464966 350.450775,638.819763 
	C357.714447,641.445068 365.033752,641.601868 372.531769,640.026001 
	C382.070068,638.021301 388.856873,632.976257 392.118256,622.972290 
	C388.812714,622.972290 385.858459,622.972290 382.082428,622.605408 
M290.501953,612.000000 
	C298.943542,612.000000 307.385132,612.000000 316.246216,612.000000 
	C315.789886,607.715149 315.744995,603.923706 314.926514,600.307434 
	C313.205841,592.705383 310.683899,585.580139 303.580444,580.891907 
	C294.710419,575.037842 285.426270,575.040283 275.705658,577.756226 
	C266.562775,580.310852 260.855164,586.216675 257.970703,595.216858 
	C255.402985,603.228821 255.285446,611.343689 257.239929,619.321106 
	C259.484467,628.482422 264.435608,635.825134 273.979279,639.005676 
	C280.918915,641.318420 287.878082,641.532227 295.105164,640.086182 
	C304.927795,638.120911 311.520905,632.805603 315.408112,622.551819 
	C308.162262,624.915344 299.613312,617.347290 294.835510,627.586426 
	C294.668304,627.944702 293.589996,627.804871 292.999268,628.049316 
	C282.112061,632.555542 273.158569,623.153076 274.589111,612.000000 
	C279.541107,612.000000 284.522339,612.000000 290.501953,612.000000 
M428.592285,562.928406 
	C428.071136,564.269897 427.410065,565.575134 427.051208,566.958740 
	C424.488831,576.838196 424.508331,576.839661 415.129761,577.056274 
	C414.853180,577.062683 414.582520,577.327393 414.236908,577.509705 
	C414.236908,581.219299 414.236908,584.961304 414.236908,589.084106 
	C417.209320,589.084106 419.950897,589.084106 423.000000,589.084106 
	C423.000000,600.091003 422.932251,610.715149 423.019104,621.338013 
	C423.105194,631.866638 427.965729,638.278992 437.123169,639.962646 
	C446.524231,641.691040 455.746063,640.035217 465.000000,638.656616 
	C465.000000,636.366943 465.000000,634.536987 465.000000,632.707092 
	C465.000000,630.823547 465.000000,628.940002 465.000000,626.850708 
	C460.595764,627.658020 456.960205,628.448853 453.286469,628.971313 
	C446.280243,629.967773 440.205750,627.040955 440.088379,622.236938 
	C439.821136,611.297302 440.004089,600.346741 440.004089,589.011108 
	C447.451447,589.011108 454.529297,589.011108 461.796631,589.011108 
	C461.796631,584.882019 461.796631,581.146118 461.796631,576.839172 
	C454.435364,576.839172 447.232361,576.839172 439.669067,576.839172 
	C439.669067,571.190674 439.669067,566.110840 439.669067,560.408264 
	C435.797211,561.039673 432.392883,561.594849 428.592285,562.928406 
M631.000000,637.500000 
	C631.000000,647.258606 631.000000,657.017273 631.000000,666.680359 
	C635.340698,666.680359 639.072998,666.680359 642.700256,666.680359 
	C642.700256,622.651550 642.700256,578.942993 642.700256,535.319458 
	C638.661621,535.319458 634.929443,535.319458 631.000000,535.319458 
	C631.000000,569.259033 631.000000,602.879517 631.000000,637.500000 
M559.000000,567.500000 
	C559.000000,600.574768 559.000000,633.649536 559.000000,666.701782 
	C563.297241,666.701782 567.029419,666.701782 570.721008,666.701782 
	C570.721008,622.695435 570.721008,578.987244 570.721008,535.298096 
	C566.703064,535.298096 562.970886,535.298096 559.000000,535.298096 
	C559.000000,545.896423 559.000000,556.198242 559.000000,567.500000 
M655.000000,606.500000 
	C655.000000,614.588013 655.000000,622.676086 655.000000,630.690063 
	C659.326172,630.690063 663.056580,630.690063 666.706299,630.690063 
	C666.706299,610.667603 666.706299,590.956421 666.706299,571.309631 
	C662.675964,571.309631 658.945862,571.309631 655.000000,571.309631 
	C655.000000,582.911987 655.000000,594.205994 655.000000,606.500000 
M617.295349,571.008728 
	C613.889160,571.008728 610.483032,571.008728 607.366516,571.008728 
	C607.366516,591.475281 607.366516,611.192444 607.366516,630.793213 
	C611.350464,630.793213 614.966675,630.793213 618.881958,630.793213 
	C618.926697,629.983887 618.991394,629.357178 618.991638,628.730469 
	C618.998291,610.589417 619.011169,592.448303 618.967651,574.307312 
	C618.965088,573.233337 618.500183,572.160461 617.295349,571.008728 
M546.999268,628.299194 
	C546.999268,609.240784 546.999268,590.182373 546.999268,571.369019 
	C542.562317,571.369019 538.830750,571.369019 535.000000,571.369019 
	C535.000000,581.552429 535.000000,591.367126 535.000000,601.181824 
	C535.000000,611.087402 535.000000,620.992981 535.000000,631.000000 
	C538.205383,631.000000 540.718262,631.191772 543.180603,630.922607 
	C544.495972,630.778687 545.724426,629.839355 546.999268,628.299194 
M511.000000,597.543335 
	C511.000000,602.625305 511.000000,607.707275 511.000000,612.683716 
	C515.344849,612.683716 519.071167,612.683716 522.690979,612.683716 
	C522.690979,604.644836 522.690979,596.926147 522.690979,589.319336 
	C518.649780,589.319336 514.923645,589.319336 511.000000,589.319336 
	C511.000000,591.943848 511.000000,594.253174 511.000000,597.543335 
M592.339722,589.000916 
	C589.264526,589.000916 586.189392,589.000916 583.353271,589.000916 
	C583.353271,597.443481 583.353271,605.166992 583.353271,612.633179 
	C587.443542,612.633179 591.169861,612.633179 594.999756,612.633179 
	C594.999756,605.624023 595.078674,598.979309 594.923218,592.339966 
	C594.896912,591.217468 593.861206,590.118591 592.339722,589.000916 
M679.007935,590.735596 
	C679.007935,598.132751 679.007935,605.529907 679.007935,612.797607 
	C683.349182,612.797607 686.961548,612.797607 690.622742,612.797607 
	C690.622742,604.753967 690.622742,596.917236 690.622742,588.609314 
	C686.498840,589.027100 682.789856,589.402893 679.007935,590.735596 
z"/>
<path fill="#FFFFFF" opacity="1.000000" stroke="none" 
	d="
M216.011444,598.453491 
	C216.001419,612.390137 216.001419,625.869263 216.001419,639.673950 
	C211.462906,639.673950 207.057755,639.673950 202.000000,639.673950 
	C202.000000,637.124390 202.000000,634.366272 202.000000,631.608215 
	C202.000000,620.282593 202.038071,608.956726 201.959641,597.631653 
	C201.947647,595.898071 201.703354,594.034302 201.018173,592.471069 
	C200.186920,590.574585 198.773392,588.933289 197.611755,587.181580 
	C196.147949,588.910889 194.061798,590.424316 193.369064,592.421082 
	C192.378403,595.276672 192.087936,598.482483 192.055710,601.544617 
	C191.922699,614.176941 192.000000,626.811401 192.000000,639.721924 
	C187.368347,639.721924 182.963516,639.721924 177.778580,639.721924 
	C177.778580,618.977173 177.778580,598.183044 177.778580,577.195190 
	C181.400711,577.195190 185.512589,577.195190 189.611374,577.195190 
	C189.982391,579.108704 190.336441,580.934692 190.878387,583.729797 
	C194.391037,577.414612 199.140991,575.036621 205.126358,576.147095 
	C209.578125,576.973022 212.615753,579.811157 213.317032,585.446350 
	C214.458176,583.861572 215.231125,582.758057 216.034668,581.677368 
	C219.496826,577.020630 224.251694,575.183838 229.827057,576.081360 
	C235.302841,576.962952 238.095459,580.931641 238.925278,586.066406 
	C239.625992,590.402222 239.912827,594.842346 239.954117,599.240356 
	C240.080383,612.687805 240.000000,626.137146 240.000000,639.791138 
	C235.224121,639.791138 230.821198,639.791138 226.000000,639.791138 
	C226.000000,625.187500 226.148773,610.742615 225.885681,596.305237 
	C225.826736,593.070862 224.325195,589.862671 223.461075,586.539673 
	C216.999390,589.019104 217.537964,594.073914 216.011444,598.453491 
z"/>
<path fill="#FFFFFF" opacity="1.000000" stroke="none" 
	d="
M115.731308,618.339539 
	C109.172760,599.557678 102.845520,581.115295 96.287788,562.001099 
	C102.397446,562.001099 107.685478,561.869263 112.956184,562.112793 
	C114.003036,562.161194 115.591995,563.464172 115.903969,564.498352 
	C121.264679,582.269348 126.463997,600.088928 131.962875,618.796448 
	C133.775146,613.108887 135.484360,608.125549 136.949768,603.071411 
	C140.697311,590.146118 144.283951,577.173767 148.122375,564.276062 
	C148.414948,563.292969 150.155960,562.153015 151.269531,562.102844 
	C156.403259,561.871582 161.553238,562.000793 167.397888,562.000793 
	C164.383942,571.235046 161.620972,580.035400 158.639908,588.761108 
	C153.155563,604.814087 147.522919,620.816406 142.006744,636.858582 
	C141.234619,639.104065 140.143967,640.370544 137.509933,640.052307 
	C135.377274,639.794556 133.141220,639.710510 131.034027,640.055969 
	C125.411240,640.977661 121.916229,639.412537 120.609421,633.318909 
	C119.540802,628.335938 117.546532,623.551514 115.731308,618.339539 
z"/>
<path fill="#FFFFFF" opacity="1.000000" stroke="none" 
	d="
M382.493286,622.788818 
	C385.858459,622.972290 388.812714,622.972290 392.118256,622.972290 
	C388.856873,632.976257 382.070068,638.021301 372.531769,640.026001 
	C365.033752,641.601868 357.714447,641.445068 350.450775,638.819763 
	C341.169128,635.464966 336.442505,628.197510 334.200470,619.248718 
	C332.196106,611.248657 332.544373,603.072083 335.041595,595.143250 
	C337.846680,586.236938 343.537506,580.161926 352.772552,577.681458 
	C362.519440,575.063477 371.813812,575.108215 380.685608,580.904541 
	C387.683746,585.476807 389.998413,592.604126 391.902557,599.935120 
	C392.867249,603.649048 392.829041,607.623535 393.290436,611.909424 
	C378.957581,611.909424 365.196198,611.909424 351.467926,611.909424 
	C350.571289,623.744629 359.165833,632.453003 370.123077,627.967285 
	C371.706940,627.318848 373.739838,626.341309 374.337891,624.977844 
	C376.139618,620.870422 379.000336,621.709290 382.493286,622.788818 
M364.488953,601.000000 
	C368.277710,601.000000 372.066467,601.000000 375.859833,601.000000 
	C375.664093,592.834106 370.773651,587.107422 363.813293,587.065002 
	C358.584686,587.033142 352.299194,590.452271 351.132965,601.000000 
	C355.281311,601.000000 359.391479,601.000000 364.488953,601.000000 
z"/>
<path fill="#FFFFFF" opacity="1.000000" stroke="none" 
	d="
M290.002747,612.000000 
	C284.522339,612.000000 279.541107,612.000000 274.589111,612.000000 
	C273.158569,623.153076 282.112061,632.555542 292.999268,628.049316 
	C293.589996,627.804871 294.668304,627.944702 294.835510,627.586426 
	C299.613312,617.347290 308.162262,624.915344 315.408112,622.551819 
	C311.520905,632.805603 304.927795,638.120911 295.105164,640.086182 
	C287.878082,641.532227 280.918915,641.318420 273.979279,639.005676 
	C264.435608,635.825134 259.484467,628.482422 257.239929,619.321106 
	C255.285446,611.343689 255.402985,603.228821 257.970703,595.216858 
	C260.855164,586.216675 266.562775,580.310852 275.705658,577.756226 
	C285.426270,575.040283 294.710419,575.037842 303.580444,580.891907 
	C310.683899,585.580139 313.205841,592.705383 314.926514,600.307434 
	C315.744995,603.923706 315.789886,607.715149 316.246216,612.000000 
	C307.385132,612.000000 298.943542,612.000000 290.002747,612.000000 
M296.180664,600.999878 
	C297.119751,600.299255 298.932312,599.075378 298.871460,598.973694 
	C296.811707,595.535461 295.276428,591.214111 292.225708,589.048828 
	C284.154572,583.320251 274.265778,590.639343 274.402985,601.000000 
	C281.345367,601.000000 288.293243,601.000000 296.180664,600.999878 
z"/>
<path fill="#FFFFFF" opacity="1.000000" stroke="none" 
	d="
M428.790436,562.539185 
	C432.392883,561.594849 435.797211,561.039673 439.669067,560.408264 
	C439.669067,566.110840 439.669067,571.190674 439.669067,576.839172 
	C447.232361,576.839172 454.435364,576.839172 461.796631,576.839172 
	C461.796631,581.146118 461.796631,584.882019 461.796631,589.011108 
	C454.529297,589.011108 447.451447,589.011108 440.004089,589.011108 
	C440.004089,600.346741 439.821136,611.297302 440.088379,622.236938 
	C440.205750,627.040955 446.280243,629.967773 453.286469,628.971313 
	C456.960205,628.448853 460.595764,627.658020 465.000000,626.850708 
	C465.000000,628.940002 465.000000,630.823547 465.000000,632.707092 
	C465.000000,634.536987 465.000000,636.366943 465.000000,638.656616 
	C455.746063,640.035217 446.524231,641.691040 437.123169,639.962646 
	C427.965729,638.278992 423.105194,631.866638 423.019104,621.338013 
	C422.932251,610.715149 423.000000,600.091003 423.000000,589.084106 
	C419.950897,589.084106 417.209320,589.084106 414.236908,589.084106 
	C414.236908,584.961304 414.236908,581.219299 414.236908,577.509705 
	C414.582520,577.327393 414.853180,577.062683 415.129761,577.056274 
	C424.508331,576.839661 424.488831,576.838196 427.051208,566.958740 
	C427.410065,565.575134 428.071136,564.269897 428.790436,562.539185 
z"/>
<path fill="#69E9F5" opacity="1.000000" stroke="none" 
	d="
M631.000000,637.000000 
	C631.000000,602.879517 631.000000,569.259033 631.000000,535.319458 
	C634.929443,535.319458 638.661621,535.319458 642.700256,535.319458 
	C642.700256,578.942993 642.700256,622.651550 642.700256,666.680359 
	C639.072998,666.680359 635.340698,666.680359 631.000000,666.680359 
	C631.000000,657.017273 631.000000,647.258606 631.000000,637.000000 
z"/>
<path fill="#69E9F5" opacity="1.000000" stroke="none" 
	d="
M559.000000,567.000000 
	C559.000000,556.198242 559.000000,545.896423 559.000000,535.298096 
	C562.970886,535.298096 566.703064,535.298096 570.721008,535.298096 
	C570.721008,578.987244 570.721008,622.695435 570.721008,666.701782 
	C567.029419,666.701782 563.297241,666.701782 559.000000,666.701782 
	C559.000000,633.649536 559.000000,600.574768 559.000000,567.000000 
z"/>
<path fill="#69E9F5" opacity="1.000000" stroke="none" 
	d="
M655.000000,606.000000 
	C655.000000,594.205994 655.000000,582.911987 655.000000,571.309631 
	C658.945862,571.309631 662.675964,571.309631 666.706299,571.309631 
	C666.706299,590.956421 666.706299,610.667603 666.706299,630.690063 
	C663.056580,630.690063 659.326172,630.690063 655.000000,630.690063 
	C655.000000,622.676086 655.000000,614.588013 655.000000,606.000000 
z"/>
<path fill="#69E9F5" opacity="1.000000" stroke="none" 
	d="
M617.772888,571.047852 
	C618.500183,572.160461 618.965088,573.233337 618.967651,574.307312 
	C619.011169,592.448303 618.998291,610.589417 618.991638,628.730469 
	C618.991394,629.357178 618.926697,629.983887 618.881958,630.793213 
	C614.966675,630.793213 611.350464,630.793213 607.366516,630.793213 
	C607.366516,611.192444 607.366516,591.475281 607.366516,571.008728 
	C610.483032,571.008728 613.889160,571.008728 617.772888,571.047852 
z"/>
<path fill="#69E9F5" opacity="1.000000" stroke="none" 
	d="
M546.995667,628.779114 
	C545.724426,629.839355 544.495972,630.778687 543.180603,630.922607 
	C540.718262,631.191772 538.205383,631.000000 535.000000,631.000000 
	C535.000000,620.992981 535.000000,611.087402 535.000000,601.181824 
	C535.000000,591.367126 535.000000,581.552429 535.000000,571.369019 
	C538.830750,571.369019 542.562317,571.369019 546.999268,571.369019 
	C546.999268,590.182373 546.999268,609.240784 546.995667,628.779114 
z"/>
<path fill="#69E9F5" opacity="1.000000" stroke="none" 
	d="
M511.000000,597.052917 
	C511.000000,594.253174 511.000000,591.943848 511.000000,589.319336 
	C514.923645,589.319336 518.649780,589.319336 522.690979,589.319336 
	C522.690979,596.926147 522.690979,604.644836 522.690979,612.683716 
	C519.071167,612.683716 515.344849,612.683716 511.000000,612.683716 
	C511.000000,607.707275 511.000000,602.625305 511.000000,597.052917 
z"/>
<path fill="#69E9F5" opacity="1.000000" stroke="none" 
	d="
M592.815796,589.004883 
	C593.861206,590.118591 594.896912,591.217468 594.923218,592.339966 
	C595.078674,598.979309 594.999756,605.624023 594.999756,612.633179 
	C591.169861,612.633179 587.443542,612.633179 583.353271,612.633179 
	C583.353271,605.166992 583.353271,597.443481 583.353271,589.000916 
	C586.189392,589.000916 589.264526,589.000916 592.815796,589.004883 
z"/>
<path fill="#69E9F5" opacity="1.000000" stroke="none" 
	d="
M679.044434,590.257080 
	C682.789856,589.402893 686.498840,589.027100 690.622742,588.609314 
	C690.622742,596.917236 690.622742,604.753967 690.622742,612.797607 
	C686.961548,612.797607 683.349182,612.797607 679.007935,612.797607 
	C679.007935,605.529907 679.007935,598.132751 679.044434,590.257080 
z"/>
<path fill="#000000" opacity="1.000000" stroke="none" 
	d="
M363.995300,601.000000 
	C359.391479,601.000000 355.281311,601.000000 351.132965,601.000000 
	C352.299194,590.452271 358.584686,587.033142 363.813293,587.065002 
	C370.773651,587.107422 375.664093,592.834106 375.859833,601.000000 
	C372.066467,601.000000 368.277710,601.000000 363.995300,601.000000 
z"/>
<path fill="#000000" opacity="1.000000" stroke="none" 
	d="
M295.710876,600.999939 
	C288.293243,601.000000 281.345367,601.000000 274.402985,601.000000 
	C274.265778,590.639343 284.154572,583.320251 292.225708,589.048828 
	C295.276428,591.214111 296.811707,595.535461 298.871460,598.973694 
	C298.932312,599.075378 297.119751,600.299255 295.710876,600.999939 
z"/>
</svg>